name rise44.9368peak50.754fall52.0217.mot
datacolumns 19
datarows 12
range 23.32991500000000 23.34824700000000
endheader
time	ground_force1_vx	ground_force1_vy	ground_force1_vz	ground_force1_px	ground_force1_py	ground_force1_pz	ground_force2_vx	ground_force2_vy	ground_force2_vz	ground_force2_px	ground_force2_py	ground_force2_pz	ground_torque1_x	ground_torque1_y	ground_torque1_z	ground_torque2_x	ground_torque2_y	ground_torque2_z	
23.32991500000000	-55.13671200000000	819.34984699999995	63.16108800000000	0.17934800000000	0.00000000000000	0.12214600000000	0.00000000000000	0.00000000000000	0.00000000000000	0.00000000000000	0.00000000000000	0.00000000000000	0.00000000000000	35.91700200000000	0.00000000000000	0.00000000000000	0.00000000000000	0.00000000000000	
23.33158100000000	-55.36616400000000	817.53327999999999	63.07662800000000	0.17874100000000	0.00000000000000	0.12208800000000	-1.16884900000000	3.77579800000000	1.11461800000000	0.00000000000000	0.00000000000000	0.00000000000000	0.00000000000000	35.80221100000000	0.00000000000000	0.00000000000000	0.48271700000000	0.00000000000000	
23.33324900000000	-55.60273700000000	815.59271999999999	62.96929700000000	0.17814400000000	0.00000000000000	0.12202600000000	-1.85978200000000	7.31824500000000	1.90994400000000	0.00000000000000	0.00000000000000	0.00000000000000	0.00000000000000	35.68301800000000	0.00000000000000	0.00000000000000	0.83927300000000	0.00000000000000	
23.33491600000000	-55.84708500000000	813.52715300000000	62.83850800000000	0.17755500000000	0.00000000000000	0.12196000000000	-2.63855600000000	11.60422500000000	2.83609300000000	0.00000000000000	0.00000000000000	0.00000000000000	0.00000000000000	35.55948100000000	0.00000000000000	0.00000000000000	1.25673300000000	0.00000000000000	
23.33657900000000	-56.09982100000000	811.33559000000002	62.68370700000000	0.17697400000000	0.00000000000000	0.12189200000000	-3.48059300000000	16.58985000000000	3.87285200000000	0.00000000000000	0.00000000000000	0.00000000000000	0.00000000000000	35.43165600000000	0.00000000000000	0.00000000000000	1.72666700000000	0.00000000000000	
23.33825100000000	-56.36151500000000	809.01706999999999	62.50437700000000	0.17640100000000	0.00000000000000	0.12182000000000	-4.35534800000000	22.19861200000000	4.99281300000000	0.00000000000000	0.00000000000000	0.00000000000000	0.00000000000000	35.29960100000000	0.00000000000000	0.00000000000000	2.23740900000000	0.00000000000000	
23.33991600000000	-56.63268700000000	806.57065599999999	62.30004000000000	0.17583400000000	0.00000000000000	0.12174400000000	-5.22828900000000	28.32716500000000	6.16319400000000	0.36429800000000	0.00000000000000	-0.06800700000000	0.00000000000000	35.16337100000000	0.00000000000000	0.00000000000000	4.66450800000000	0.00000000000000	
23.34158200000000	-56.91380700000000	803.99543100000005	62.07025500000000	0.17527300000000	0.00000000000000	0.12166500000000	-6.06336100000000	34.85401100000000	7.34826800000000	0.37645500000000	0.00000000000000	-0.06830700000000	0.00000000000000	35.02301800000000	0.00000000000000	0.00000000000000	5.67553200000000	0.00000000000000	
23.34325100000000	-57.20528900000000	801.29049999999995	61.81462200000000	0.17471700000000	0.00000000000000	0.12158200000000	-6.82566200000000	41.64994800000000	8.51209900000000	0.38707800000000	0.00000000000000	-0.06860500000000	0.00000000000000	34.87859500000000	0.00000000000000	0.00000000000000	6.69399100000000	0.00000000000000	
23.34491300000000	-57.50748900000000	798.45498799999996	61.53278500000000	0.17416700000000	0.00000000000000	0.12149500000000	-7.48393400000000	48.58877500000000	9.62121100000000	0.39640800000000	0.00000000000000	-0.06890200000000	0.00000000000000	34.73014900000000	0.00000000000000	0.00000000000000	7.69039600000000	0.00000000000000	
23.34658700000000	-57.82070100000000	795.48803499999997	61.22443000000000	0.17362000000000	0.00000000000000	0.12140400000000	-8.01256900000000	55.55684000000000	10.64683600000000	0.40464000000000	0.00000000000000	-0.06919700000000	0.00000000000000	34.57772700000000	0.00000000000000	0.00000000000000	8.63846100000000	0.00000000000000	
23.34824700000000	-58.14515200000000	792.38879899999995	60.88928900000000	0.17307700000000	0.00000000000000	0.12130900000000	-8.39294400000000	62.46041400000000	11.56652000000000	0.41193300000000	0.00000000000000	-0.06949300000000	0.00000000000000	34.42136900000000	0.00000000000000	0.00000000000000	9.51669300000000	0.00000000000000	
